<svg id="Слой_1" xmlns="http://www.w3.org/2000/svg" viewBox="0 0 120 120"><style>.st0{fill:#62488a}.st1{fill:#644a8b}.st2{fill:#6d5592}.st3{fill:#fdfdfe}.st4{fill:#654b8c}.st5{fill:#664d8d}.st6{fill:#674e8d}.st7{fill:#654c8c}.st8{fill:#63498a}</style><path class="st0" d="M87.8.6h.9c.1.2.3.2.5.3 6.4 1.4 10.4 6.3 10.4 12.8V67c0 7.3-5.6 12.9-12.8 12.9H33.5c-7.2 0-12.9-5.6-12.9-12.8V13.2c0-5.6 3.7-10.5 9.1-12.1.4-.1 1 0 1.3-.5h1.5c.6.4 1.2.3 1.8.3h51.6c.7 0 1.3.1 1.9-.3zm-14.5 38c5.1-2.8 6.8-6 6.3-11.6-.5-5-3.3-8.3-8.1-9.8-2.5-.8-5.1-1.2-7.7-1.3-7.2-.3-14.4-.1-21.7-.2-1.2 0-1.4.3-1.4 1.5v46.4c0 1.1.2 1.5 1.4 1.5 6.7-.1 13.5 0 20.2 0 3.1 0 6.2-.3 9.3-1.1C80 61.6 84 53.4 80.7 45.3c-1.4-3.3-3.9-5.5-7.4-6.7z"/><path class="st1" d="M14.3 100.7c2.3-.3 4.6-.6 7 0 2.4.6 3.6 2.7 2.7 4.7-.3.7-1 1.2-1.6 1.6 0 .1 0 .2.1.3 1.7.9 2.6 2.2 2.2 4.1-.3 2-1.7 2.9-3.5 3.3-2.3.5-4.5.5-6.8.1-.1-4.7-.1-9.4-.1-14.1zm3.2 10c.4.7-.7 2.1 1.1 2 1.7-.1 2.7-.8 2.7-2.1s-1-2-2.7-2c-1.9-.1-.7 1.4-1.1 2.1zm0-6.1c.3.6-.7 1.8 1 1.7 1.5-.1 2.5-.7 2.5-1.8s-.9-1.7-2.4-1.7c-1.4-.1-1 .9-1.1 1.8zM94.8 118.9v-12.7c0-.5-.6-1.6.6-1.6.9 0 2.2-.8 2.3 1.1 1.9-1.5 3.8-2 5.9-.7 1.1.7 1.5 2 2 3.1v3.2c-2.2 3.9-3.9 4.6-7.6 2.9v4.7h-3.2zm3.3-9.3c0 2.3 1.2 3.4 2.9 2.8 1.2-.4 1.9-2.1 1.5-3.7-.3-1.2-1-2-2.3-2-1.4.1-2.1 1.2-2.1 2.9z"/><path class="st2" d="M87.8.6c-.6.4-1.2.3-1.8.3H34.4c-.6 0-1.3.1-1.8-.3h55.2z"/><path class="st3" d="M73.3 38.6c3.5 1.2 6 3.4 7.4 6.7 3.4 8.1-.6 16.3-9.1 18.6-3 .8-6.1 1.1-9.3 1.1H42.1c-1.2 0-1.4-.4-1.4-1.5V17.1c0-1.1.3-1.5 1.4-1.5 7.2.1 14.4-.1 21.7.2 2.6.1 5.2.5 7.7 1.3 4.8 1.5 7.6 4.8 8.1 9.8.5 5.7-1.3 8.9-6.3 11.7zM53.6 49.7v5.6c0 .5 0 1 .7.9 3.2-.2 6.3.3 9.5-.3 3.5-.7 5.2-2.9 5-6.6-.2-3.3-2.2-5.4-5.6-5.8-2.9-.3-5.8-.1-8.6-.2-.8 0-1 .3-1 1v5.4zm0-20.1v4.1c0 .7.2 1 1 1 2.5-.1 5.1 0 7.6-.1 2.8-.2 4.5-1.9 4.6-4.7.1-3-1.4-4.9-4.3-5.3-2.7-.4-5.4-.1-8-.2-.8 0-.9.4-.9 1v4.2z"/><path class="st4" d="M26.6 109.7c0-3.3 2.2-5.5 5.5-5.5 3.1 0 5.2 2.2 5.2 5.3 0 3.3-2.1 5.5-5.3 5.5-3.3.1-5.4-2.1-5.4-5.3zm7.3-.1c0-1.9-.8-3-2-3s-2 1.2-2.1 3c0 1.9.8 3.2 2 3.2 1.3 0 2.2-1.3 2.1-3.2zM38.9 109.7c0-3.3 2.2-5.5 5.5-5.5 3.1 0 5.2 2.2 5.2 5.3 0 3.3-2.2 5.5-5.3 5.5-3.3.1-5.4-2.1-5.4-5.3zm7.3-.1c0-1.9-.8-3.1-2-3.1s-2.1 1.2-2.1 3c0 1.9.8 3.2 2 3.2 1.3.1 2.2-1.2 2.1-3.1z"/><path class="st5" d="M92.5 111.2c0 .6.1 1.3 0 1.9-.1.5.4 1.5-.2 1.6-.8.1-1.9.6-2.7-.3-.5-.7-.7.1-1 .2-2.3 1.2-4.7.4-5.3-1.9-.5-1.7.4-3.5 2.2-4.2.9-.4 1.9-.4 2.8-.6.3-.1.8.1.8-.4 0-.4-.3-.6-.6-.8-1.1-.5-2.1-.3-3.1.1-.7.2-1 .3-1.2-.6-.2-.7-.3-1.2.6-1.4 1-.3 2-.5 3-.5 3.1 0 4.6 1.4 4.7 4.5 0 .8-.1 1.6 0 2.4zm-4-1.4c-1 .2-2.1.3-2.1 1.7 0 .9.5 1.4 1.4 1.3 1.3-.1 1.6-1 1.6-2.1-.1-.7-.3-1-.9-.9z"/><path class="st6" d="M61.7 115.1c-.5-.1-1.1-.1-1.7-.3-1.3-.3-1.6-1.2-.9-2.3.3-.5.5-.2.8-.1.7.3 1.5.4 2.3.4.5 0 1-.1 1.1-.7.1-.6-.3-.9-.8-1.1-.7-.3-1.5-.5-2.1-.9-2.1-1.3-2.1-3.9 0-5.1 1.6-.9 3.3-.9 5-.4.9.3.5.9.4 1.4-.1.5-.2 1-1 .7-.9-.3-2.2-.8-2.6.3-.4 1.2 1.1 1.2 1.9 1.5 1.8.8 2.6 1.9 2.5 3.4-.1 1.5-1.3 2.6-3.1 3-.7.2-1.2.2-1.8.2z"/><path class="st7" d="M55.7 115.1c-2.2 0-3.4-1-3.5-3.2-.1-1.4 0-2.7-.1-4.1 0-.3.2-.9-.4-.9-1 0-1-.5-1-1.3s.1-1.1 1-1.2c.7 0 .4-.8.4-1.2.1-.8 2.4-2.1 3-1.6.4.3.2.9.2 1.4-.1 1 .1 1.6 1.3 1.4.9-.2 1 .4 1 1.1 0 .8 0 1.4-1.1 1.2-1-.2-1.3.3-1.2 1.2.1 1 0 1.9 0 2.9 0 .7.3 1.5 1.1 1.4 1.2-.1 1 .7 1 1.4.1.9-.3 1.2-1.2 1.3-.2.1-.4.2-.5.2zM71.9 101.7c0 .5.1.9.1 1.2-.1 1.1 0 1.9 1.5 1.7 1-.2.7.7.7 1.2 0 .6.1 1.3-.8 1.1-1.4-.2-1.5.5-1.4 1.6.1.8 0 1.7 0 2.5 0 .9.3 1.6 1.4 1.5.7 0 .9.3.8.9-.1.6.4 1.4-.6 1.7-2.3.7-4.4-.6-4.6-3-.1-1.4 0-2.8-.1-4.2 0-.3.2-.9-.5-.9-1 .1-1-.5-1-1.2s-.1-1.3.9-1.2c.5.1.5-.4.5-.7-.3-1.5.7-1.8 1.8-1.9.4-.2.8-.2 1.3-.3z"/><path class="st1" d="M79.1 105.9c.7-.8 1.4-1.5 2.4-1.6.6-.1 1 .1 1 .8 0 1.1.3 2.3-1.6 2.3-1.1 0-1.6 1-1.6 2.1v4.2c0 .8-.2 1.1-1 1.1-2.2 0-2.2.1-2.2-2.1v-7c0-.5-.3-1.3.6-1.1.7.1 1.8-.8 2.1.7 0 .1.2.3.3.6z"/><path class="st8" d="M53.6 49.7v-5.3c0-.7.1-1.1 1-1 2.9.1 5.8-.1 8.6.2 3.4.3 5.5 2.4 5.6 5.8.2 3.7-1.5 5.9-5 6.6-3.1.6-6.3.1-9.5.3-.8 0-.7-.4-.7-.9v-5.7zM53.6 29.6v-4.2c0-.6.1-1 .9-1 2.7.1 5.4-.2 8 .2 2.9.4 4.4 2.3 4.3 5.3-.1 2.7-1.8 4.5-4.6 4.7-2.5.1-5.1.1-7.6.1-.8 0-1-.3-1-1v-4.1z"/></svg>