<svg id="Слой_1" xmlns="http://www.w3.org/2000/svg" viewBox="0 0 120 120"><style>.st0{fill:#1b73b9}.st1{fill:#191919}.st2{fill:#fefefe}.st3{fill:#1c87c6}</style><path class="st0" d="M59.9 116.8c-.1-.2-.3-.2-.5-.2-10.7-3-21.4-6-32-9-.4-.1-.6-.3-.6-.7l-1.5-18.6c-.6-7.7-1.3-15.5-1.9-23.2-.5-6.5-1-12.9-1.6-19.4-.5-6.4-1.1-12.8-1.6-19.1 0-.5 0-.6.6-.6h78.6c.5 0 .6.2.6.6-.4 4.7-.8 9.4-1.3 14.1-.3 3.9-.7 7.8-1 11.7-.4 4.9-.9 9.7-1.3 14.6-.3 4-.7 7.9-1 11.9-.4 4.8-.8 9.6-1.3 14.3-.3 3.9-.7 7.8-1 11.7-.1.7-.2 1.4-.2 2.1 0 .4-.2.6-.5.7-4.6 1.3-9.2 2.6-13.8 4-5.8 1.7-11.7 3.4-17.5 5-.1 0-.3 0-.4.2-.4-.1-.6-.1-.8-.1z"/><path class="st1" d="M48.9 5v4.5c0 .2.1.4-.1.6-.2-.2-.2-.5-.2-.8V6c0-.6 0-.7-.7-.7H37.3c-.6 0-.7.1-.7.7v13.3c0 .6.1.6.7.6h10.5c.3 0 .7-.1.9.2-.1.2-.3.1-.5.1H36.8c-.5 0-.6-.1-.6-.6V5h12.7zM53.9 9.2c-.2-.1-.1-.3-.1-.5V5h12.4v4.8c0 .2.1.4-.1.6-.2-.2-.2-.5-.2-.8V6c0-.6-.1-.7-.7-.7H54.6c-.6 0-.6.1-.6.7v2.5c0 .2.1.5-.1.7zM71 5.1V5h12.3v4.9c0 .4-.1.5-.5.5h-3.4c.1-.4.4-.3.6-.3h2.3c.6 0 .7-.1.7-.7V6.1c0-.8 0-.8-.8-.8H71.9c-.3 0-.6 0-.9-.2z"/><path d="M53.9 9.2V5.7c0-.4.1-.5.5-.5h11.2c.4 0 .5.1.5.5v4.7h-3.9c.2.3.3.4.4.6l3.3 4.2c.2.3.3.5.3.8v3.8c0 .4-.1.5-.5.5H54.6c-.3 0-.5-.1-.5-.4v-4c0-.4.1-.5.5-.4h3.5c-1.4-2.3-2.8-4.3-4.2-6.3zM71 5.1h11.6c.5 0 .7.1.7.6v4c0 .4-.1.6-.5.6H80c-.2 0-.4-.1-.5.1 0 .2.2.3.3.5 1.1 1.5 2.3 2.9 3.4 4.3.2.2.3.4.3.7v3.9c0 .4-.1.5-.5.4H71.9c-.3 0-.5-.1-.5-.4v-4c0-.4.1-.4.5-.4h3.4c0-.2-.1-.3-.2-.5-1.2-1.8-2.5-3.5-3.7-5.3-.3-.3-.4-.6-.4-1V5.1zM48.8 20.1H37.2c-.7 0-.7 0-.7-.7V5.8c0-.5.1-.6.6-.6h11.1c.5 0 .6.1.6.6v4.4c-.2.1-.4 0-.5 0h-6c-.4 0-.6.1-.6.5v4.1c0 .4.1.5.5.5h6.2c.4 0 .5.1.5.5-.1 1.4 0 2.8-.1 4.3z"/><path class="st2" d="M37.5 72.7c-.4-3-.8-5.9-1.3-8.9-.1-.5.2-.5.5-.7 7.3-3.2 14.7-6.4 22-9.6.2-.1.5-.2.7-.4H36.3c-.5 0-.7-.1-.7-.6-.4-2.9-.8-5.8-1.2-8.6-.1-.6-.1-.6.5-.6H51c10.9-.1 21.8-.1 32.6-.1 1.2 0 1.2 0 1.2 1.2v7.8c0 .9 0 .9-.8 1.2-7.2 3-14.4 5.9-21.6 8.8 0 0-.1 0-.1.1h19.8c.9 0 1 .2.9 1l-.6 6.9c-.2 2.8-.5 5.5-.7 8.3l-.6 6.9c-.2 2.4-.4 4.7-.6 7.1 0 .5-.3.7-.7.9-2.6.8-5.1 1.6-7.7 2.4-3.7 1.1-7.3 2.3-11 3.4-.3.1-.5.3-.8.1-3.7-1-7.4-2-11-3.1-3.1-.9-6.3-1.7-9.4-2.6-.4-.1-.5-.3-.5-.7-.4-4.9-.8-9.7-1.3-14.6 0-.3 0-.5.4-.5h8.9c.4 0 .4.1.5.5.3 2.2.5 4.4.8 6.6 0 .4.2.5.6.6l9.6 2.4c.5.1.9 0 1.3-.1.3-.2.6-.3.9-.3 2.9-.6 5.9-1.1 8.8-1.7.9-.2.9-.2 1-1.1.3-3.5.7-7.1 1.1-10.6 0-.3 0-.5.1-.8.1-.7 0-.7-.7-.7-3.1 0-6.3.1-9.4 0-8-.2-16 0-23.9-.1-.3.3-.5.3-.6.2z"/><path class="st3" d="M60.2 99.5c6.5-2 13.1-4.1 19.6-6.1.4-.1.5-.3.5-.7.5-6.1 1.1-12.1 1.6-18.2.3-3.8.7-7.6 1-11.4 0-.5 0-.6-.6-.6H61.7c.1-.2.3-.2.4-.3 7.3-3 14.7-6 22-9 .4-.2.5-.3.5-.8v-8.6c0-.4-.1-.5-.5-.5H34.7c-.5 0-.5.2-.5.6-.2-.6-.2-.7.5-.7h24.5c.7 0 .7 0 .7-.7v-8c0-.5.1-.7.6-.7h31.6c.5 0 .6.1.6.6-.2 1.4-.3 2.8-.4 4.3-.1 1-.1 2.1-.2 3.1-.1 1.5-.3 2.9-.4 4.4-.1.9-.2 1.9-.2 2.8-.1 1.6-.3 3.2-.4 4.8-.1 1-.1 2.1-.2 3.1-.1 1.4-.3 2.9-.4 4.3-.1.9-.2 1.9-.2 2.8-.1 1.6-.3 3.2-.4 4.8-.1 1-.1 2-.2 3-.1 1.5-.3 2.9-.4 4.4-.1.9-.2 1.9-.2 2.8-.1 1.6-.2 3.2-.4 4.8-.1 1-.1 2-.2 3-.1 1.5-.3 3-.4 4.5-.1.9-.2 1.8-.2 2.7-.1 1.6-.2 3.2-.4 4.8-.1.6-.1 1.3-.1 2 0 .4-.1.6-.6.8-5 1.4-9.9 2.8-14.9 4.3-3.6 1-7.3 2.1-10.9 3.2-.5.2-.6.1-.6-.5-.2-3.2-.2-6.2-.2-9.1z"/><path class="st3" d="M37.5 72.7h34.1c.7 0 .7 0 .6.7L71 85.1c-.1 1-.1 1-1.1 1.2l-9.6 1.8H60c.1-.2.1-.4.1-.6v-14c0-.5-.1-.7-.7-.7H38s-.3.1-.5-.1z"/></svg>