<svg id="Слой_1" xmlns="http://www.w3.org/2000/svg" viewBox="0 0 120 120"><style>.st0{fill:#ef5033}.st1{fill:#ef5235}.st2{fill:#ef5135}.st3{fill:#f0583d}.st4{fill:#fefbfb}.st5{fill:#fdf3f1}</style><path class="st0" d="M1.6 56.5l11.9-12.2c3.5-3.6 6.8-3 8.7 1.7 2.1 5.1 3.1 10.3 2.6 15.8-.2 1.8-.9 3-1.8 4.3-1.1 1.6-.6 3.1.7 4.4 1.3 1.3 2.9 1.4 4.4.4 1.4-1 2.5-2.7 1.4-4.2-3.2-4.5-1-9.4-1.9-14.8 2.8 1.8 4.9 3 5.2 6.2.2 2.3 1.7 3.5 4 3.2 1.9-.2 2.9-1.4 3-3.2.1-2-.8-3.4-2.9-3.8-3.9-.7-6.1-3.2-7.1-6.9-.5-1.7-1.3-3.3-3.1-3.3-2.3 0-3.5-1.5-4.7-2.9-.9-1.1-3.7-2-1.2-4.1 2-1.7 3.8-5.9 7-3 7.5 6.9 14.6 14.3 21.8 21.6 1.3 1.4 1 3.1-.3 4.4-6.9 6.9-13.7 13.8-20.7 20.6-2.4 2.4-4.3.8-6.2-1-6.3-6.4-12.6-12.7-19-19-.5-.5-1.3-.9-1.9-1.3.1-1 .1-1.9.1-2.9z"/><path class="st1" d="M118.4 68.2c-14.2 2.6-15.2 1.6-15.3-12.8 0-2.4 1.4-5.6-2.9-6.5-.9-.2-1.4-3.2.7-3.9 2.7-.9 4.1-2.6 4.5-5.2.3-1.9 1.4-2.3 3-2.2 2.3.1 2 1.8 1.9 3.1-.4 3.2.8 4.4 4 4 1.5-.2 2.9-.2 2.9 2.1 0 2.3-1.1 2.9-3 2.6-3.4-.5-4.2 1.1-3.9 4.1.2 2.1.1 4.2 0 6.3-.1 3.3 1.2 5.2 4.6 4.1 2.6-.8 2.4 1.3 3.4 2.3.1.7.1 1.3.1 2z"/><path class="st0" d="M70.6 80.6c-2.1-.3-4.2-.4-6.2-1-1.9-.5-4.6-1.8-4.1-3.5 1.2-4.3-1.1-9.2 2.2-13 .8-.9 2.2-1.6.6-3.1-3.2-3-3.1-6.8-1.4-10.3 1.9-4 6-4.7 10-4.7 3.5 0 7.1.4 10.6.6 1.2.1 2.3.1 2.3 1.8 0 1.3-.2 2.3-1.8 2.2-1.4-.1-1.8.3-1.4 1.9 1.5 7.5-2 11.3-10 11.2-1.3 0-3.4-1.1-3.4 1.2 0 1.8 2.1.9 3.2 1.1 2.6.3 5.2.4 7.7.8 2.8.4 4.9 1.8 5.4 4.8.5 3.2-.6 5.7-3.3 7.5-3.2 2.1-6.8 2.2-10.4 2.5z"/><path class="st2" d="M97 55.2v7.3c0 .9-.3 2.2.7 2.6 1.5.6 2.9 1.1 2.3 3-.7 2.3-2.7 1.1-4.1 1.2-2.2.2-4.5.1-6.8 0-1 0-2.1.1-2.2-1.3 0-.7.2-2.1.6-2.2 3.6-.8 2.7-3.7 2.4-5.8-.5-3.8 2.2-8.4-2.5-11.5-.4-.3-.4-2.2.1-2.6 2.3-1.9 5.2-.8 7.8-.8 2.2-.1 1.6 2 1.6 3.3.1 2.3 0 4.5.1 6.8z"/><path class="st3" d="M97 36.8c0 3.1-1.4 4.6-4 4.8-2.6.1-4.3-1.4-4.4-4-.1-2.6 1.4-4.3 4-4.3 2.7-.2 4.3 1.1 4.4 3.5z"/><path class="st4" d="M71.6 57.9c-2.4-.1-4.2-1-4.3-3.6-.1-2.6 1.2-4.3 3.9-4.5 2.7-.2 4.3 1.1 4.5 3.9.2 2.8-1.6 3.9-4.1 4.2z"/><path class="st5" d="M70.7 76c-.9-.1-2.3-.2-3.7-.6-1.3-.4-1.7-1.4-1.4-2.7.3-1.1 1-1.6 2.1-1.6 1.3 0 2.6-.1 3.9.2 2 .5 5.5-.8 5.3 2.3-.1 2.8-3.4 2.2-6.2 2.4z"/></svg>