<svg id="Слой_1" xmlns="http://www.w3.org/2000/svg" viewBox="0 0 120 120"><style>.st0{fill:#eeb9b8}.st1{fill:#d24946}.st2{fill:#d24a47}.st3{fill:#e7a09f}.st4{fill:#fefefe}</style><path class="st0" d="M83.7.7c-.1.2-.3.2-.4.1V.7h.4z"/><path class="st1" d="M36.5 61.8c-.2-2.1-.4-4.2-.7-6.3l-.6-5.4c-.2-2.1-.4-4.1-.6-6.2-.2-1.8-.4-3.6-.6-5.3-.2-1.9-.4-3.8-.6-5.6v-.1c2.4 1.2 4.9 1.5 7.5 1.9 3.5.5 7 .7 10.6.8 1.8.1 3.6.1 5.4.1H65c3.4-.1 6.7-.2 10.1-.6 2.6-.3 5.3-.6 7.9-1.2 1.1-.3 2.1-.6 3.1-1.1 0 .6-.1 1.2-.1 1.8-.2 1.9-.4 3.9-.6 5.8-.2 2.1-.5 4.2-.7 6.3l-.6 5.7c-.2 2.1-.5 4.2-.7 6.4l-.6 5.7c0 .2-.1.5-.3.6-1.5 1.7-3.4 2.9-5.6 3.6-.2.1-.5.2-.7 0-.1-.2.2-.4.3-.6.8-.9 1.7-1.7 2.5-2.7.7-.8 1.4-1.7 1.8-2.7.2-.5.3-1 .2-1.5-.2-1.2-1.1-1.9-2.4-1.7-1.4.2-2.6 1-3.7 1.8-.2.2-.5.4-.8.7.1-.3.1-.5.2-.7.1-.7-.2-1.1-.7-1.2-.3-.1-.6 0-.8.3-.2.3-.4.7-.5 1-.3 1-.6 2.1-1.1 3-.9 1.7-2.2 3-4.1 3.7-.4.1-.9.3-1.3.4-.4.1-.5 0-.5-.4s.1-.8.2-1.1c.4-1.7 1.1-3.4 1.8-5.1 1-2.4 2.1-4.8 3.1-7.2.4-.9.7-1.8.7-2.8 0-.3 0-.6-.1-.9-.2-.6-.8-.7-1.2-.3-.4.4-.7.9-.9 1.4-.9 1.8-1.6 3.6-2.3 5.5-.8 2.1-1.7 4.1-2.4 6.2-.3.9-.6 1.9-.8 2.8-.1.6-.4 1-.9 1.4-.5.3-1 .6-1.6.8-.7.2-1.1-.1-1.1-.8-.1-.6.1-1.2.3-1.8.4-1.3 1-2.6 1.5-3.9.2-.6.5-1.2.5-1.8 0-.3 0-.5-.2-.7-.3-.2-.5-.1-.7.1-.4.3-.6.6-.8 1-.6.9-1 1.8-1.4 2.7-.5 1.4-1.4 2.5-2.4 3.5-.5.5-.9 1-1.5 1.3-.2.2-.5.3-.8.4-.5.1-.9-.1-.9-.6 0-.4.1-.8.2-1.2.4-1.4 1-2.8 1.6-4.1.3-.7.7-1.4.9-2.1.1-.3.1-.6-.1-.9-.2-.4-.5-.5-.9-.2s-.7.7-1 1.1c-1.4 2.2-2.4 4.5-2.8 7.1-.1.5-.1 1.1 0 1.6.2 1 .8 1.5 1.8 1.6 1.3.1 2.3-.4 3.2-1.2.6-.5 1.1-1.2 1.6-1.9.1.1 0 .3 0 .4 0 1.8 1 2.7 2.8 2.3.9-.2 1.7-.6 2.4-1.1.7 1.3 1.5 1.6 2.9 1.1 1.2-.4 2.3-1.1 3.3-1.9.1-.1.2-.2.3-.2-.1.4-.2.8-.4 1.1-.7 1.8-1.6 3.5-2.3 5.3-.3.7-.6 1.5-.7 2.3v.6c.1.6.6.8 1.1.4.4-.3.7-.7 1-1.1.9-1.5 1.6-3.1 2.2-4.7.9-2.3 1.8-4.6 3.1-6.7.7-1.2 1.5-2.3 2.6-3.1.8-.5 1.6-.9 2.5-.9.1 0 .3 0 .4.1.1.2 0 .3-.1.4-.3.5-.7.9-1.1 1.2-.9.9-1.9 1.8-2.7 2.9-.4.6-.9 1.2-1.1 1.9-.5 1.7.6 2.9 2.3 2.6 1.5-.2 2.8-.9 4-1.6.7-.4 1.3-.9 1.9-1.4 0 .3 0 .6-.1.9l-.9 7.8c-.3 2.7-.6 5.4-.9 8.2-.1 1.3-.3 2.6-.4 3.9 0 .3-.1.4-.4.5-1.6.9-3.3 1.5-5 2-2.7.8-5.5 1.2-8.3 1.4-3.2.3-6.4.4-9.6.2-4.1-.1-8.2-.6-12.2-1.7-1.7-.5-3.3-1.1-4.8-2-.2-.1-.3-.3-.3-.5-.3-3.3-.7-6.7-1-10-.3-2.6-.5-5.2-.8-7.9.4.1.7.3 1.1.4 1.4.3 2.6-.1 3.7-.8 1.1-.7 1.9-1.6 2.8-2.4.1-.1.2-.3.4-.3 0 .4-.1.7-.2 1.1-.4 1.3-.9 2.6-1.1 3.9-.1.5-.2 1 0 1.5.2.6.7.8 1.2.4.3-.2.5-.5.7-.9.5-1.1.9-2.3 1.2-3.4.7-2.8 1.6-5.6 2.5-8.3.3-.8.5-1.7.5-2.6 0-.3 0-.7-.1-1-.2-.5-.8-.7-1.3-.4-.3.2-.5.5-.6.8-.4.7-.7 1.5-.8 2.3-.4 1.5-1.1 2.8-2.1 3.9-1.4 1.1-2.5 2.3-4 3.1-.3.2-.7.3-1.1.4-.7.1-1.2-.2-1.5-.8-.4-.8-.4-1.7-.3-2.6.2-1.9.9-3.7 1.6-5.4 1-2.3 2.2-4.4 3.8-6.3.9-1 1.9-1.8 3.3-2.1.8-.2 1.5.1 2 .8.2.3.4.7.6 1 .2.3.3.5.5.8.4.5 1.2.6 1.7.2.4-.3.4-.8.3-1.3-.1-.4-.2-.7-.4-1.1-.5-.9-1.3-1.7-2.2-2.3-1.4-1-2.9-.9-4.4-.3-1.7.7-2.9 1.9-4 3.3-1.9 2.4-3.1 5.1-4.2 7.8-.2.6-.5 1.2-.7 1.8 0 .1.1-.1 0-.1z"/><path class="st2" d="M40.7 91.5c6.2 2.1 12.6 2.8 19.1 2.8 6.5 0 12.8-.8 19-2.9-.3.5-.5.9-.8 1.3-.7 1.2-1.4 2.4-2.2 3.7-.1.2-.2.5-.2.8-.2 2.9-.3 5.8-.5 8.7l-.3 6c-.1 1.2-.2 2.5-.2 3.7 0 .6-.4 1-.8 1.3-.9.6-2 1-3 1.3-1.9.5-3.9.8-5.9 1-2.3.2-4.6.2-6.9.2-2.9-.1-5.9-.4-8.7-1.2-.9-.2-1.7-.5-2.5-1-.3-.2-.5-.3-.7-.5-.2-.2-.4-.5-.4-.9-.2-3.5-.5-6.9-.7-10.4-.2-2.5-.3-5-.5-7.5 0-.3-.1-.6-.3-.9-1-1.7-2.1-3.4-3.1-5.1-.3-.2-.3-.3-.4-.4zM83.2.8h.4c1.3.4 2.2 1.2 2.8 2.3.2.5.2.6-.2 1-3.4 3.6-6.8 7.2-10.3 10.8-.8.9-1.7 1.8-2.5 2.6-.1.1-.2.3-.3.5-.7 3-1.5 5.9-2.2 8.9-.1.3 0 .3.3.3 1.7.1 3.4.2 5.1.4 2.8.3 5.7.7 8.4 1.5.5.2 1 .4 1.4.7.8.5.8 1.1 0 1.6-.7.4-1.4.7-2.2.9-2 .6-4.1.9-6.2 1.1-2.4.3-4.8.5-7.1.6-1.9.1-3.7.2-5.6.2-2.7.1-5.4.1-8 0-3 0-5.9-.2-8.9-.4-2.7-.2-5.5-.5-8.2-.9-1.8-.3-3.5-.6-5.2-1.3-.4-.1-.7-.3-1-.6-.5-.4-.4-.8 0-1.2.4-.3.9-.6 1.4-.7 1.5-.5 3-.8 4.6-1.1 3.3-.5 6.6-.8 10-1 2.8-.2 5.7-.2 8.5-.3H66c.2 0 .3-.1.4-.3.5-2.2 1.1-4.4 1.6-6.6.3-1.4.7-2.8 1-4.2 0-.2.1-.3.2-.4 2.5-2.6 5-5.3 7.5-7.9 2.1-2.2 4.1-4.4 6.2-6.6.1.2.2.1.3.1z"/><path class="st3" d="M36.5 61.8l.1.1c0 .1-.1.2-.1.1v-.2z"/><path class="st4" d="M70.1 31.7c0-.1-.4-.1-.2-.3.1-.2.2-.2.3-.1.2.1.4.3.3.5 0 .3-.2.4-.4.5-.6.2-1.2.2-1.9.3-1.1 0-2.1.1-3.2-.1-.2 0-.4-.1-.6-.2-.3-.2-.3-.7 0-.9.1-.1.1-.1.2-.1.1.1.2.2.2.3-.2.3.1.2.2.3.5.1 1 .1 1.5.1 1.1 0 2.2 0 3.2-.1.2 0 .2 0 .4-.2z"/></svg>