<svg id="Слой_1" xmlns="http://www.w3.org/2000/svg" viewBox="0 0 120 120"><style>.st0{fill:#e34d26}.st1{fill:#f06529}.st2{fill:#eaeaea}.st3{fill:#fefefe}</style><path d="M74.8 13.6v12c0 .4-.1.5-.5.5h-3.2c-.3 0-.4-.1-.4-.4v-5.2-.4h-.1c-.9 1.4-1.9 2.9-2.8 4.4-1-1.5-1.9-2.9-2.9-4.5V25.8c0 .3-.1.3-.3.3h-3.4c-.3 0-.3-.1-.3-.4v-5.8-6.3h4.4l.3.3 2.4 3.9c.7-1.1 1.4-2.2 2-3.3l.6-.9h4.2zM45.4 13.6v12.1c0 .4-.1.4-.4.4h-3.3c-.4 0-.4-.1-.4-.4v-3.4c0-.3-.1-.4-.4-.4h-3.1c-.3 0-.4.1-.4.4v3.3c0 .3 0 .5-.4.4h-3.4c-.2 0-.3 0-.3-.3V13.5h4.2c.2.2.1.4.1.7V17c0 .5 0 .5.5.5h2.5c.5 0 .5 0 .5-.5v-2.8c0-.2 0-.5.1-.7 1.4.1 2.8.1 4.2.1zM58.8 13.6v3.8c0 .3-.1.4-.4.4h-2.8c-.4 0-.5.1-.5.5v7.4c0 .3-.1.5-.4.5h-3.3c-.4 0-.5-.1-.5-.5v-7.5c0-.3-.1-.5-.4-.5h-2.9c-.2 0-.4 0-.4-.3v-3.9c3.9.1 7.8.1 11.6.1zM81 13.6v7.9c0 .4.1.5.5.4h5.1c.3 0 .4.1.4.4v3.4c0 .3-.1.3-.3.3h-9.4c-.4 0-.3-.2-.3-.4V14v-.5c1.2.1 2.6.1 4 .1z"/><path class="st0" d="M60 31.9h32.3c.6 0 .6 0 .5.6l-.9 10.2c-.3 3.6-.7 7.3-1 10.9l-.9 9.9-.9 9.9-.9 9.9c-.3 3.6-.7 7.3-1 10.9-.1 1.5-.3 3-.4 4.4 0 .3-.1.4-.4.5-8.6 2.4-17.3 4.8-25.9 7.2-.4.1-.8.1-1.3 0l-25.8-7.2c-.3-.1-.4-.2-.4-.5-.3-4-.7-8-1.1-12l-.9-9.9-.9-9.9c-.3-3-.5-5.9-.8-8.9-.3-3.6-.7-7.3-1-10.9-.3-2.9-.5-5.9-.8-8.8-.2-1.9-.3-3.8-.5-5.7-.1-.7-.1-.7.6-.7 10.9.1 21.7.1 32.4.1z"/><path class="st1" d="M60 45.6v-7.7c0-.4.1-.5.5-.5h25.8c.4 0 .6.1.5.5-.1 1.3-.2 2.5-.4 3.8-.1.9-.1 1.7-.2 2.6-.1 1.3-.2 2.5-.4 3.8-.1.8-.1 1.6-.2 2.3-.1 1.3-.2 2.5-.4 3.8-.1.8-.1 1.7-.2 2.5-.1 1.3-.2 2.5-.4 3.8-.1.8-.1 1.6-.2 2.4-.1 1.3-.2 2.6-.4 3.9-.1.8-.1 1.7-.2 2.5-.1 1.2-.2 2.5-.4 3.7-.1.8-.1 1.7-.2 2.5-.1 1.3-.2 2.6-.4 3.9-.1.8-.1 1.5-.2 2.3-.1 1.3-.2 2.6-.4 3.9-.1.8-.1 1.6-.2 2.4-.1 1.3-.2 2.5-.4 3.8-.1.9-.2 1.7-.2 2.6 0 .3-.1.5-.4.6-3.9 1.1-7.8 2.1-11.7 3.2-3 .8-6 1.7-9.1 2.5-.7.2-.7.2-.7-.5v-7.8c0-.1 0-.1.1-.1 1-.4 2-.6 3.1-.9 4.2-1.2 8.5-2.4 12.7-3.5.8-.2.8-.2.9-1.1.2-2 .3-3.9.5-5.9.2-1.9.3-3.8.5-5.7.2-1.9.3-3.8.5-5.7.2-1.9.3-3.8.5-5.7.1-1.4.2-1.2-1-1.2H49.1c-.2 0-.4 0-.5-.2.2-.2.5-.2.8-.2h9.4c.6 0 .6 0 .6-.6v-6.8c0-.2 0-.5.1-.7 0-.1.1-.1.1-.1.3-.1.6-.1.9-.1h18.2c.6 0 .7-.1.8-.7l.6-6.9c0-.2-.1-.3-.3-.3H60.5c0-.3-.3-.2-.5-.4z"/><path class="st2" d="M60 45.6H80.2c.4 0 .6 0 .4.5-.2-.2-.5-.2-.8-.2h-19c-.6 0-.6 0-.6.6v6.6c0 .3.1.5-.2.8-.2.1-.5.1-.8.1h-10c-.7 0-.7.1-.7.8.2 2.2.4 4.5.6 6.7 0 .3.1.5 0 .8.2.2.3.1.5.1h10.3c.2.2.1.5.1.8v6.6c0 .7 0 .7.7.7h8.6c.2 0 .6-.1.7.2-.2.1-.4.1-.6.1h-8.9c-.2 0-.4 0-.6-.2H42c-.4 0-.5-.1-.6-.5-.2-3-.5-6-.8-9-.2-2.6-.5-5.1-.7-7.7-.2-2.3-.4-4.6-.6-6.8-.1-.8-.1-.8.7-.8h19.3c.3-.2.5-.2.7-.2zM60 92.2c-2.7-.7-5.5-1.5-8.2-2.2-2.8-.8-5.6-1.6-8.4-2.3-.2-.1-.3-.2-.3-.4-.1-1.5-.3-3.1-.4-4.6-.2-2.4-.4-4.7-.6-7.1-.1-.9-.1-.9.8-.9h7c.3 0 .4.1.5.4.1 1.9.3 3.8.5 5.6 0 .4.2.5.5.6 2.8.7 5.6 1.5 8.4 2.3h.3c.1 0 .1 0 .1.1v7.7c-.1.3 0 .5-.2.8z"/><path class="st1" d="M60.1 83.6s-.1 0 0 0c-.1-4.4-.1-8.7-.1-13.1h10.2c.2.4 0 .8 0 1.3-.2 2-.3 4-.5 5.9l-.3 3c0 .4-.3.5-.6.6-1.4.4-2.8.8-4.2 1.1-1.3.3-2.6.7-3.8 1-.3.2-.5.3-.7.2z"/><path class="st3" d="M60.1 83.6c2-.6 4.1-1.1 6.1-1.7.9-.2 1.8-.5 2.6-.7.2-.1.3-.2.4-.4.3-3.4.6-6.9.9-10.3-.1-.2-.3-.1-.5-.1h-9.1c-.4 0-.5-.1-.5-.5v-7.7H78.6c.4 0 .5.1.5.5-.3 2.9-.5 5.9-.8 8.8-.3 3.6-.7 7.3-1 10.9-.1 1.5-.3 3.1-.4 4.6 0 .3-.1.4-.4.5-5.4 1.5-10.8 3-16.1 4.5-.1 0-.2 0-.3.1v-8c-.1-.2-.1-.3 0-.5zM60 53.8v-7.6c0-.4.1-.5.5-.5H80c.3 0 .5 0 .5.4-.2 2-.3 4.1-.5 6.1 0 .5-.1.9-.1 1.4 0 .2-.1.3-.3.3H60.3c-.2-.1-.2-.1-.3-.1z"/><path class="st0" d="M49.1 62.2c-.1-.7-.1-1.5-.2-2.2-.2-1.9-.3-3.9-.5-5.8 0-.2 0-.4.3-.4H60v7.7c0 .6 0 .6-.6.6-3.4.1-6.8.1-10.3.1z"/></svg>