<svg id="Слой_1" xmlns="http://www.w3.org/2000/svg" viewBox="0 0 1166.8 1166.8"><style>.st0{fill:#171f2b}.st1{fill:#0968ab}.st2{fill:#0a69ab}.st3{fill:#141c29}.st4{fill:#161e2b}.st5{fill:#151c29}.st6{fill:#0b69ac}.st7{fill:#151d29}.st8{fill:#171f2a}.st9{fill:#212833}</style><path class="st0" d="M24.9 1161c-2.2-25-4.7-44.5 30.2-55.5 18.5-5.8 27.5-42.4 27.2-67.4-.3-21.8 10.5-39.6 12.1-60.4 2.1-28.2 27.3-24.2 45.2-21.1 23.4 4.1 10.9 21.6 8.1 34.2-8.1 35.4-16.8 70.6-24.9 106-5.9 25.9-15 49.6-39.2 64.1-19.6.1-39.1.1-58.7.1z"/><path class="st1" d="M935.1 585c-77.6 118.6-192.2 172.8-329.6 163.7-187.1-12.4-320.7-112.4-394.1-284.3-54.1-126.7-43.8-248.6 55.4-357.9C161.1 485.9 619.7 790.4 935.1 585z"/><path class="st2" d="M478.3 41.5C451.7 189.4 499.8 296.1 618 370.6c113.9 71.8 228.2 80.9 345.8-8.5-28.6 85.8-124.5 129.8-218.2 133.5-134.5 5.3-255.5-76.2-309.7-202.6-36.6-85.3-23.2-185.9 42.4-251.5z"/><path class="st3" d="M302 1082.8c-17.8 0-35.7.5-53.5-.1-43.7-1.4-72.1-27.3-77-69.7-8.9-77.5 38.1-142 112.4-167.8 40.4-14 72.3.5 94.6 23.1 22.5 22.7 38 55 20.2 95.4-10 22.8-35.3 52.4-3.2 83.8 9.1 9-.4 35-25.6 35.2-22.5.2-45.2 0-67.9.1zm-8.8-50.8c6.4-5.5 27.7 13.4 34.4-11.7 6.5-24.3 14-48.4 19.4-73 4.1-18.7-.6-38.2-18.6-45.7-20.3-8.5-44.4-12.7-63.1 5.2-28.3 27.1-36.7 64.4-32.8 100 2.7 23.8 29.3 31.6 60.7 25.2z"/><path class="st4" d="M700.2 1082.8c-11.4 0-22.8-.3-34.1 0-37.8 1.1-55.7-14.3-55.3-54.9.8-81.7 19.4-108.6 85-134.4 36.9-14.5 65.4-.6 87.4 19 22.6 20.2 8.5 52.9 4 80.4-2.9 18-17.2 11-26.8 11.3-26 1-52 0-78 .5-8.6.2-21.6-3.5-21 11.7.4 11.1 8.9 16.5 19.9 17.1 19.4 1.2 38.8 2.1 58.2 3.5 15.9 1.2 31.2-.3 29.3 25.8-1.7 24.3-16 19.4-29.7 19.8-12.9.5-25.9.2-38.9.2zm-29.7-112.9c26.3-11.8 50.3 8.6 66.4-15 1.3-1.8-7.7-14.8-13.7-16.7-22.6-7-39.8.8-52.7 31.7z"/><path class="st5" d="M509.2 1082.8c-14.7-.1-29.5 1.3-44-.3-32.6-3.6-47.6-27.2-46.4-55.6 1.6-34.5 10.2-68.9 17.7-102.9 4.7-21.5 19.6-31.9 42.4-26.8 26.8 6 13.7 22.2 9.7 36.9-5.4 20-12.2 40.3-13 60.7-.5 13.7-14.1 39.2 18.5 39 20-.1 40 6.6 41.2-28.9.9-27.1 16.6-53.8 17.9-82.9 1.3-29.2 24.6-26.8 43.5-24.3 31.8 4.2 4.5 22.7 3.7 31.4-3.4 37.7-14.8 74.6-17.8 112.3-4.3 53.4-42.2 39.9-73.4 41.4z"/><path class="st6" d="M931.4 228.8c-64.1 61.4-179.3 58.1-247.5-7.1-71.8-68.7-87-158.8-33.5-222.2-10.1 106.3 39.7 172 129.4 214.3 47.6 22.4 95 19.1 143.7 8 2.6 2.2 5.3 4.6 7.9 7z"/><path class="st7" d="M1142.6 871.9c-43.7 70.7-104.1 124.8-134.5 199.2-7.6 18.5-29.2 14.2-43.7 10.6-21.2-5.3-6.1-19.2-3-29.9 5.9-20.2-7.6-36.7-12.2-54.6-3.7-14.4-12-30.7 1.2-39.1 10.2-6.5 30.2-8.5 41 2.4 18.6 18.9 24.2 8.7 33.3-8.4 8.9-16.8 24.7-30 32.6-47.1 16.5-36.1 43.1-44.3 85.3-33.1z"/><path class="st8" d="M993.6 934.6c-11.8.7-19.8 1.5-27.9 1.6-94.6 1.4-94.8 1.3-109.6 94.6-2 12.5-2.1 24.4-7 37.2-9 23.5-26.7 15.5-40.1 13.7-20.3-2.7-10.5-18.1-7.9-29.9 8.7-40.4 18.5-80.5 24.9-121.3 4.1-26.1 15.7-35.8 41.7-33.9 25.8 1.8 52 1.6 77.8.1 25-1.6 39.1 9.1 48.1 37.9z"/><path class="st9" d="M105.3 940.6c4.5-33.2 12.8-49.3 43.1-44.4 17.3 2.8 15.8 10.8 13.4 21.8-8 36.6-36 8.6-56.5 22.6z"/><path class="st6" d="M923.5 221.7c3.4-8.5 9.1-10.8 17.2-6.1l-9.3 13.2c-2.6-2.4-5.3-4.8-7.9-7.1z"/></svg>