<?xml version="1.0" encoding="utf-8"?>
<!-- Generator: Adobe Illustrator 19.2.0, SVG Export Plug-In . SVG Version: 6.00 Build 0)  -->
<svg version="1.1" id="Слой_1" xmlns="http://www.w3.org/2000/svg" xmlns:xlink="http://www.w3.org/1999/xlink" x="0px" y="0px"
	 viewBox="0 0 120 120" style="enable-background:new 0 0 120 120;" xml:space="preserve">
<style type="text/css">
	.st0{fill:#62488A;}
	.st1{fill:#644A8B;}
	.st2{fill:#6D5592;}
	.st3{fill:#FDFDFE;}
	.st4{fill:#654B8C;}
	.st5{fill:#664D8D;}
	.st6{fill:#674E8D;}
	.st7{fill:#654C8C;}
	.st8{fill:#63498A;}
</style>
<g>
	<path class="st0" d="M87.8,0.6c0.3,0,0.6,0,0.9,0c0.1,0.2,0.3,0.2,0.5,0.3c6.4,1.4,10.4,6.3,10.4,12.8c0,17.8,0,35.5,0,53.3
		c0,7.3-5.6,12.9-12.8,12.9c-17.8,0-35.5,0-53.3,0c-7.2,0-12.9-5.6-12.9-12.8c0-18,0-35.9,0-53.9c0-5.6,3.7-10.5,9.1-12.1
		C30.1,1,30.7,1.1,31,0.6c0.5,0,1,0,1.5,0c0.6,0.4,1.2,0.3,1.8,0.3c17.2,0,34.4,0,51.6,0C86.6,0.9,87.2,1,87.8,0.6z M73.3,38.6
		c5.1-2.8,6.8-6,6.3-11.6c-0.5-5-3.3-8.3-8.1-9.8c-2.5-0.8-5.1-1.2-7.7-1.3c-7.2-0.3-14.4-0.1-21.7-0.2c-1.2,0-1.4,0.3-1.4,1.5
		c0,15.5,0,30.9,0,46.4c0,1.1,0.2,1.5,1.4,1.5c6.7-0.1,13.5,0,20.2,0c3.1,0,6.2-0.3,9.3-1.1C80,61.6,84,53.4,80.7,45.3
		C79.3,42,76.8,39.8,73.3,38.6z"/>
	<path class="st1" d="M14.3,100.7c2.3-0.3,4.6-0.6,7,0c2.4,0.6,3.6,2.7,2.7,4.7c-0.3,0.7-1,1.2-1.6,1.6c0,0.1,0,0.2,0.1,0.3
		c1.7,0.9,2.6,2.2,2.2,4.1c-0.3,2-1.7,2.9-3.5,3.3c-2.3,0.5-4.5,0.5-6.8,0.1C14.3,110.1,14.3,105.4,14.3,100.7z M17.5,110.7
		c0.4,0.7-0.7,2.1,1.1,2c1.7-0.1,2.7-0.8,2.7-2.1c0-1.3-1-2-2.7-2C16.7,108.5,17.9,110,17.5,110.7z M17.5,104.6
		c0.3,0.6-0.7,1.8,1,1.7c1.5-0.1,2.5-0.7,2.5-1.8c0-1.1-0.9-1.7-2.4-1.7C17.2,102.7,17.6,103.7,17.5,104.6z"/>
	<path class="st1" d="M94.8,118.9c0-4.2,0-8.5,0-12.7c0-0.5-0.6-1.6,0.6-1.6c0.9,0,2.2-0.8,2.3,1.1c1.9-1.5,3.8-2,5.9-0.7
		c1.1,0.7,1.5,2,2,3.1c0,1.1,0,2.1,0,3.2c-2.2,3.9-3.9,4.6-7.6,2.9c0,1.6,0,3.1,0,4.7C97,118.9,95.9,118.9,94.8,118.9z M98.1,109.6
		c0,2.3,1.2,3.4,2.9,2.8c1.2-0.4,1.9-2.1,1.5-3.7c-0.3-1.2-1-2-2.3-2C98.8,106.8,98.1,107.9,98.1,109.6z"/>
	<path class="st2" d="M87.8,0.6C87.2,1,86.6,0.9,86,0.9c-17.2,0-34.4,0-51.6,0c-0.6,0-1.3,0.1-1.8-0.3C50.9,0.6,69.4,0.6,87.8,0.6z"
		/>
	<path class="st3" d="M73.3,38.6c3.5,1.2,6,3.4,7.4,6.7c3.4,8.1-0.6,16.3-9.1,18.6c-3,0.8-6.1,1.1-9.3,1.1c-6.7,0-13.5,0-20.2,0
		c-1.2,0-1.4-0.4-1.4-1.5c0-15.5,0-30.9,0-46.4c0-1.1,0.3-1.5,1.4-1.5c7.2,0.1,14.4-0.1,21.7,0.2c2.6,0.1,5.2,0.5,7.7,1.3
		c4.8,1.5,7.6,4.8,8.1,9.8C80.1,32.6,78.3,35.8,73.3,38.6z M53.6,49.7c0,1.9,0,3.7,0,5.6c0,0.5,0,1,0.7,0.9c3.2-0.2,6.3,0.3,9.5-0.3
		c3.5-0.7,5.2-2.9,5-6.6c-0.2-3.3-2.2-5.4-5.6-5.8c-2.9-0.3-5.8-0.1-8.6-0.2c-0.8,0-1,0.3-1,1C53.6,46.2,53.6,48,53.6,49.7z
		 M53.6,29.6c0,1.4,0,2.7,0,4.1c0,0.7,0.2,1,1,1c2.5-0.1,5.1,0,7.6-0.1c2.8-0.2,4.5-1.9,4.6-4.7c0.1-3-1.4-4.9-4.3-5.3
		c-2.7-0.4-5.4-0.1-8-0.2c-0.8,0-0.9,0.4-0.9,1C53.6,26.8,53.6,28.2,53.6,29.6z"/>
	<path class="st4" d="M26.6,109.7c0-3.3,2.2-5.5,5.5-5.5c3.1,0,5.2,2.2,5.2,5.3c0,3.3-2.1,5.5-5.3,5.5
		C28.7,115.1,26.6,112.9,26.6,109.7z M33.9,109.6c0-1.9-0.8-3-2-3c-1.2,0-2,1.2-2.1,3c0,1.9,0.8,3.2,2,3.2
		C33.1,112.8,34,111.5,33.9,109.6z"/>
	<path class="st4" d="M38.9,109.7c0-3.3,2.2-5.5,5.5-5.5c3.1,0,5.2,2.2,5.2,5.3c0,3.3-2.2,5.5-5.3,5.5
		C41,115.1,38.9,112.9,38.9,109.7z M46.2,109.6c0-1.9-0.8-3.1-2-3.1c-1.2,0-2.1,1.2-2.1,3c0,1.9,0.8,3.2,2,3.2
		C45.4,112.8,46.3,111.5,46.2,109.6z"/>
	<path class="st5" d="M92.5,111.2c0,0.6,0.1,1.3,0,1.9c-0.1,0.5,0.4,1.5-0.2,1.6c-0.8,0.1-1.9,0.6-2.7-0.3c-0.5-0.7-0.7,0.1-1,0.2
		c-2.3,1.2-4.7,0.4-5.3-1.9c-0.5-1.7,0.4-3.5,2.2-4.2c0.9-0.4,1.9-0.4,2.8-0.6c0.3-0.1,0.8,0.1,0.8-0.4c0-0.4-0.3-0.6-0.6-0.8
		c-1.1-0.5-2.1-0.3-3.1,0.1c-0.7,0.2-1,0.3-1.2-0.6c-0.2-0.7-0.3-1.2,0.6-1.4c1-0.3,2-0.5,3-0.5c3.1,0,4.6,1.4,4.7,4.5
		C92.5,109.6,92.4,110.4,92.5,111.2z M88.5,109.8c-1,0.2-2.1,0.3-2.1,1.7c0,0.9,0.5,1.4,1.4,1.3c1.3-0.1,1.6-1,1.6-2.1
		C89.3,110,89.1,109.7,88.5,109.8z"/>
	<path class="st6" d="M61.7,115.1c-0.5-0.1-1.1-0.1-1.7-0.3c-1.3-0.3-1.6-1.2-0.9-2.3c0.3-0.5,0.5-0.2,0.8-0.1
		c0.7,0.3,1.5,0.4,2.3,0.4c0.5,0,1-0.1,1.1-0.7c0.1-0.6-0.3-0.9-0.8-1.1c-0.7-0.3-1.5-0.5-2.1-0.9c-2.1-1.3-2.1-3.9,0-5.1
		c1.6-0.9,3.3-0.9,5-0.4c0.9,0.3,0.5,0.9,0.4,1.4c-0.1,0.5-0.2,1-1,0.7c-0.9-0.3-2.2-0.8-2.6,0.3c-0.4,1.2,1.1,1.2,1.9,1.5
		c1.8,0.8,2.6,1.9,2.5,3.4c-0.1,1.5-1.3,2.6-3.1,3C62.8,115.1,62.3,115.1,61.7,115.1z"/>
	<path class="st7" d="M55.7,115.1c-2.2,0-3.4-1-3.5-3.2c-0.1-1.4,0-2.7-0.1-4.1c0-0.3,0.2-0.9-0.4-0.9c-1,0-1-0.5-1-1.3
		c0-0.8,0.1-1.1,1-1.2c0.7,0,0.4-0.8,0.4-1.2c0.1-0.8,2.4-2.1,3-1.6c0.4,0.3,0.2,0.9,0.2,1.4c-0.1,1,0.1,1.6,1.3,1.4
		c0.9-0.2,1,0.4,1,1.1c0,0.8,0,1.4-1.1,1.2c-1-0.2-1.3,0.3-1.2,1.2c0.1,1,0,1.9,0,2.9c0,0.7,0.3,1.5,1.1,1.4c1.2-0.1,1,0.7,1,1.4
		c0.1,0.9-0.3,1.2-1.2,1.3C56,115,55.8,115.1,55.7,115.1z"/>
	<path class="st7" d="M71.9,101.7c0,0.5,0.1,0.9,0.1,1.2c-0.1,1.1,0,1.9,1.5,1.7c1-0.2,0.7,0.7,0.7,1.2c0,0.6,0.1,1.3-0.8,1.1
		c-1.4-0.2-1.5,0.5-1.4,1.6c0.1,0.8,0,1.7,0,2.5c0,0.9,0.3,1.6,1.4,1.5c0.7,0,0.9,0.3,0.8,0.9c-0.1,0.6,0.4,1.4-0.6,1.7
		c-2.3,0.7-4.4-0.6-4.6-3c-0.1-1.4,0-2.8-0.1-4.2c0-0.3,0.2-0.9-0.5-0.9c-1,0.1-1-0.5-1-1.2c0-0.7-0.1-1.3,0.9-1.2
		c0.5,0.1,0.5-0.4,0.5-0.7c-0.3-1.5,0.7-1.8,1.8-1.9C71,101.8,71.4,101.8,71.9,101.7z"/>
	<path class="st1" d="M79.1,105.9c0.7-0.8,1.4-1.5,2.4-1.6c0.6-0.1,1,0.1,1,0.8c0,1.1,0.3,2.3-1.6,2.3c-1.1,0-1.6,1-1.6,2.1
		c0,1.4,0,2.8,0,4.2c0,0.8-0.2,1.1-1,1.1c-2.2,0-2.2,0.1-2.2-2.1c0-2.3,0-4.7,0-7c0-0.5-0.3-1.3,0.6-1.1c0.7,0.1,1.8-0.8,2.1,0.7
		C78.8,105.4,79,105.6,79.1,105.9z"/>
	<path class="st8" d="M53.6,49.7c0-1.8,0-3.5,0-5.3c0-0.7,0.1-1.1,1-1c2.9,0.1,5.8-0.1,8.6,0.2c3.4,0.3,5.5,2.4,5.6,5.8
		c0.2,3.7-1.5,5.9-5,6.6c-3.1,0.6-6.3,0.1-9.5,0.3c-0.8,0-0.7-0.4-0.7-0.9C53.6,53.4,53.6,51.6,53.6,49.7z"/>
	<path class="st8" d="M53.6,29.6c0-1.4,0-2.8,0-4.2c0-0.6,0.1-1,0.9-1c2.7,0.1,5.4-0.2,8,0.2c2.9,0.4,4.4,2.3,4.3,5.3
		c-0.1,2.7-1.8,4.5-4.6,4.7c-2.5,0.1-5.1,0.1-7.6,0.1c-0.8,0-1-0.3-1-1C53.6,32.3,53.6,31,53.6,29.6z"/>
</g>
</svg>
