<?xml version="1.0" encoding="utf-8"?>
<!-- Generator: Adobe Illustrator 19.2.0, SVG Export Plug-In . SVG Version: 6.00 Build 0)  -->
<svg version="1.1" id="Слой_1" xmlns="http://www.w3.org/2000/svg" xmlns:xlink="http://www.w3.org/1999/xlink" x="0px" y="0px"
	 viewBox="0 0 1166.8 1166.8" style="enable-background:new 0 0 1166.8 1166.8;" xml:space="preserve">
<style type="text/css">
	.st0{fill:#171F2B;}
	.st1{fill:#0968AB;}
	.st2{fill:#0A69AB;}
	.st3{fill:#141C29;}
	.st4{fill:#161E2B;}
	.st5{fill:#151C29;}
	.st6{fill:#0B69AC;}
	.st7{fill:#151D29;}
	.st8{fill:#171F2A;}
	.st9{fill:#212833;}
</style>
<g>
	<path class="st0" d="M24.9,1161c-2.2-25-4.7-44.5,30.2-55.5c18.5-5.8,27.5-42.4,27.2-67.4c-0.3-21.8,10.5-39.6,12.1-60.4
		c2.1-28.2,27.3-24.2,45.2-21.1c23.4,4.1,10.9,21.6,8.1,34.2c-8.1,35.4-16.8,70.6-24.9,106c-5.9,25.9-15,49.6-39.2,64.1
		C64,1161,44.5,1161,24.9,1161z"/>
	<path class="st1" d="M935.1,585c-77.6,118.6-192.2,172.8-329.6,163.7c-187.1-12.4-320.7-112.4-394.1-284.3
		c-54.1-126.7-43.8-248.6,55.4-357.9C161.1,485.9,619.7,790.4,935.1,585z"/>
	<path class="st2" d="M478.3,41.5C451.7,189.4,499.8,296.1,618,370.6c113.9,71.8,228.2,80.9,345.8-8.5
		c-28.6,85.8-124.5,129.8-218.2,133.5c-134.5,5.3-255.5-76.2-309.7-202.6C399.3,207.7,412.7,107.1,478.3,41.5z"/>
	<path class="st3" d="M302,1082.8c-17.8,0-35.7,0.5-53.5-0.1c-43.7-1.4-72.1-27.3-77-69.7c-8.9-77.5,38.1-142,112.4-167.8
		c40.4-14,72.3,0.5,94.6,23.1c22.5,22.7,38,55,20.2,95.4c-10,22.8-35.3,52.4-3.2,83.8c9.1,9-0.4,35-25.6,35.2
		C347.4,1082.9,324.7,1082.7,302,1082.8z M293.2,1032c6.4-5.5,27.7,13.4,34.4-11.7c6.5-24.3,14-48.4,19.4-73
		c4.1-18.7-0.6-38.2-18.6-45.7c-20.3-8.5-44.4-12.7-63.1,5.2c-28.3,27.1-36.7,64.4-32.8,100C235.2,1030.6,261.8,1038.4,293.2,1032z"
		/>
	<path class="st4" d="M700.2,1082.8c-11.4,0-22.8-0.3-34.1,0c-37.8,1.1-55.7-14.3-55.3-54.9c0.8-81.7,19.4-108.6,85-134.4
		c36.9-14.5,65.4-0.6,87.4,19c22.6,20.2,8.5,52.9,4,80.4c-2.9,18-17.2,11-26.8,11.3c-26,1-52,0-78,0.5c-8.6,0.2-21.6-3.5-21,11.7
		c0.4,11.1,8.9,16.5,19.9,17.1c19.4,1.2,38.8,2.1,58.2,3.5c15.9,1.2,31.2-0.3,29.3,25.8c-1.7,24.3-16,19.4-29.7,19.8
		C726.2,1083.1,713.2,1082.8,700.2,1082.8z M670.5,969.9c26.3-11.8,50.3,8.6,66.4-15c1.3-1.8-7.7-14.8-13.7-16.7
		C700.6,931.2,683.4,939,670.5,969.9z"/>
	<path class="st5" d="M509.2,1082.8c-14.7-0.1-29.5,1.3-44-0.3c-32.6-3.6-47.6-27.2-46.4-55.6c1.6-34.5,10.2-68.9,17.7-102.9
		c4.7-21.5,19.6-31.9,42.4-26.8c26.8,6,13.7,22.2,9.7,36.9c-5.4,20-12.2,40.3-13,60.7c-0.5,13.7-14.1,39.2,18.5,39
		c20-0.1,40,6.6,41.2-28.9c0.9-27.1,16.6-53.8,17.9-82.9c1.3-29.2,24.6-26.8,43.5-24.3c31.8,4.2,4.5,22.7,3.7,31.4
		c-3.4,37.7-14.8,74.6-17.8,112.3C578.3,1094.8,540.4,1081.3,509.2,1082.8z"/>
	<path class="st6" d="M931.4,228.8c-64.1,61.4-179.3,58.1-247.5-7.1c-71.8-68.7-87-158.8-33.5-222.2
		c-10.1,106.3,39.7,172,129.4,214.3c47.6,22.4,95,19.1,143.7,8C926.1,224,928.8,226.4,931.4,228.8z"/>
	<path class="st7" d="M1142.6,871.9c-43.7,70.7-104.1,124.8-134.5,199.2c-7.6,18.5-29.2,14.2-43.7,10.6c-21.2-5.3-6.1-19.2-3-29.9
		c5.9-20.2-7.6-36.7-12.2-54.6c-3.7-14.4-12-30.7,1.2-39.1c10.2-6.5,30.2-8.5,41,2.4c18.6,18.9,24.2,8.7,33.3-8.4
		c8.9-16.8,24.7-30,32.6-47.1C1073.8,868.9,1100.4,860.7,1142.6,871.9z"/>
	<path class="st8" d="M993.6,934.6c-11.8,0.7-19.8,1.5-27.9,1.6c-94.6,1.4-94.8,1.3-109.6,94.6c-2,12.5-2.1,24.4-7,37.2
		c-9,23.5-26.7,15.5-40.1,13.7c-20.3-2.7-10.5-18.1-7.9-29.9c8.7-40.4,18.5-80.5,24.9-121.3c4.1-26.1,15.7-35.8,41.7-33.9
		c25.8,1.8,52,1.6,77.8,0.1C970.5,895.1,984.6,905.8,993.6,934.6z"/>
	<path class="st9" d="M105.3,940.6c4.5-33.2,12.8-49.3,43.1-44.4c17.3,2.8,15.8,10.8,13.4,21.8C153.8,954.6,125.8,926.6,105.3,940.6
		z"/>
	<path class="st6" d="M923.5,221.7c3.4-8.5,9.1-10.8,17.2-6.1c-3.1,4.4-6.2,8.8-9.3,13.2C928.8,226.4,926.1,224,923.5,221.7z"/>
</g>
</svg>
