<?xml version="1.0" encoding="utf-8"?>
<!-- Generator: Adobe Illustrator 19.2.0, SVG Export Plug-In . SVG Version: 6.00 Build 0)  -->
<svg version="1.1" id="Слой_1" xmlns="http://www.w3.org/2000/svg" xmlns:xlink="http://www.w3.org/1999/xlink" x="0px" y="0px"
	 viewBox="0 0 120 120" style="enable-background:new 0 0 120 120;" xml:space="preserve">
<style type="text/css">
	.st0{fill:#1B73B9;}
	.st1{fill:#191919;}
	.st2{fill:#FEFEFE;}
	.st3{fill:#1C87C6;}
</style>
<g>
	<path class="st0" d="M59.9,116.8c-0.1-0.2-0.3-0.2-0.5-0.2c-10.7-3-21.4-6-32-9c-0.4-0.1-0.6-0.3-0.6-0.7c-0.5-6.2-1-12.4-1.5-18.6
		c-0.6-7.7-1.3-15.5-1.9-23.2c-0.5-6.5-1-12.9-1.6-19.4c-0.5-6.4-1.1-12.8-1.6-19.1c0-0.5,0-0.6,0.6-0.6c26.2,0,52.4,0,78.6,0
		c0.5,0,0.6,0.2,0.6,0.6c-0.4,4.7-0.8,9.4-1.3,14.1c-0.3,3.9-0.7,7.8-1,11.7c-0.4,4.9-0.9,9.7-1.3,14.6c-0.3,4-0.7,7.9-1,11.9
		c-0.4,4.8-0.8,9.6-1.3,14.3c-0.3,3.9-0.7,7.8-1,11.7c-0.1,0.7-0.2,1.4-0.2,2.1c0,0.4-0.2,0.6-0.5,0.7c-4.6,1.3-9.2,2.6-13.8,4
		c-5.8,1.7-11.7,3.4-17.5,5c-0.1,0-0.3,0-0.4,0.2C60.3,116.8,60.1,116.8,59.9,116.8z"/>
	<path class="st1" d="M48.9,5c0,1.5,0,3,0,4.5c0,0.2,0.1,0.4-0.1,0.6c-0.2-0.2-0.2-0.5-0.2-0.8c0-1.1,0-2.2,0-3.3
		c0-0.6,0-0.7-0.7-0.7c-3.5,0-7.1,0-10.6,0c-0.6,0-0.7,0.1-0.7,0.7c0,4.4,0,8.9,0,13.3c0,0.6,0.1,0.6,0.7,0.6c3.5,0,7,0,10.5,0
		c0.3,0,0.7-0.1,0.9,0.2c-0.1,0.2-0.3,0.1-0.5,0.1c-3.8,0-7.6,0-11.4,0c-0.5,0-0.6-0.1-0.6-0.6c0-4.9,0-9.7,0-14.6
		C40.5,5,44.7,5,48.9,5z"/>
	<path class="st1" d="M53.9,9.2c-0.2-0.1-0.1-0.3-0.1-0.5c0-1.2,0-2.4,0-3.7c4.1,0,8.3,0,12.4,0c0,1.6,0,3.2,0,4.8
		c0,0.2,0.1,0.4-0.1,0.6c-0.2-0.2-0.2-0.5-0.2-0.8c0-1.2,0-2.4,0-3.6c0-0.6-0.1-0.7-0.7-0.7c-3.5,0-7,0-10.6,0
		c-0.6,0-0.6,0.1-0.6,0.7c0,0.8,0,1.7,0,2.5C54,8.7,54.1,9,53.9,9.2z"/>
	<path class="st1" d="M71,5.1c0,0,0-0.1,0-0.1c4.1,0,8.2,0,12.3,0c0,1.6,0,3.2,0,4.9c0,0.4-0.1,0.5-0.5,0.5c-1.1,0-2.3,0-3.4,0
		c0.1-0.4,0.4-0.3,0.6-0.3c0.8,0,1.6,0,2.3,0c0.6,0,0.7-0.1,0.7-0.7c0-1.1,0-2.2,0-3.3c0-0.8,0-0.8-0.8-0.8c-3.4,0-6.9,0-10.3,0
		C71.6,5.3,71.3,5.3,71,5.1z"/>
	<path d="M53.9,9.2c0-1.2,0-2.4,0-3.5c0-0.4,0.1-0.5,0.5-0.5c3.7,0,7.5,0,11.2,0c0.4,0,0.5,0.1,0.5,0.5c0,1.6,0,3.1,0,4.7
		c-1.3,0-2.5,0-3.9,0c0.2,0.3,0.3,0.4,0.4,0.6c1.1,1.4,2.2,2.8,3.3,4.2c0.2,0.3,0.3,0.5,0.3,0.8c0,1.3,0,2.5,0,3.8
		c0,0.4-0.1,0.5-0.5,0.5c-3.7,0-7.4,0-11.1,0c-0.3,0-0.5-0.1-0.5-0.4c0-1.3,0-2.7,0-4c0-0.4,0.1-0.5,0.5-0.4c1.1,0,2.3,0,3.5,0
		C56.7,13.2,55.3,11.2,53.9,9.2z"/>
	<path d="M71,5.1c3.9,0,7.7,0,11.6,0c0.5,0,0.7,0.1,0.7,0.6c0,1.3,0,2.7,0,4c0,0.4-0.1,0.6-0.5,0.6c-0.9,0-1.9,0-2.8,0
		c-0.2,0-0.4-0.1-0.5,0.1c0,0.2,0.2,0.3,0.3,0.5c1.1,1.5,2.3,2.9,3.4,4.3c0.2,0.2,0.3,0.4,0.3,0.7c0,1.3,0,2.6,0,3.9
		c0,0.4-0.1,0.5-0.5,0.4c-3.7,0-7.4,0-11.1,0c-0.3,0-0.5-0.1-0.5-0.4c0-1.3,0-2.7,0-4c0-0.4,0.1-0.4,0.5-0.4c1.1,0,2.3,0,3.4,0
		c0-0.2-0.1-0.3-0.2-0.5c-1.2-1.8-2.5-3.5-3.7-5.3C71.1,9.3,71,9,71,8.6C71,7.4,71,6.3,71,5.1z"/>
	<path d="M48.8,20.1c-3.9,0-7.7,0-11.6,0c-0.7,0-0.7,0-0.7-0.7c0-4.5,0-9.1,0-13.6c0-0.5,0.1-0.6,0.6-0.6c3.7,0,7.4,0,11.1,0
		c0.5,0,0.6,0.1,0.6,0.6c0,1.5,0,2.9,0,4.4c-0.2,0.1-0.4,0-0.5,0c-2,0-4,0-6,0c-0.4,0-0.6,0.1-0.6,0.5c0,1.4,0,2.7,0,4.1
		c0,0.4,0.1,0.5,0.5,0.5c2.1,0,4.1,0,6.2,0c0.4,0,0.5,0.1,0.5,0.5C48.8,17.2,48.9,18.6,48.8,20.1z"/>
	<path class="st2" d="M37.5,72.7c-0.4-3-0.8-5.9-1.3-8.9c-0.1-0.5,0.2-0.5,0.5-0.7c7.3-3.2,14.7-6.4,22-9.6c0.2-0.1,0.5-0.2,0.7-0.4
		c-0.2,0-0.4,0-0.6,0c-7.5,0-15,0-22.5,0c-0.5,0-0.7-0.1-0.7-0.6c-0.4-2.9-0.8-5.8-1.2-8.6c-0.1-0.6-0.1-0.6,0.5-0.6
		c5.4,0,10.7,0,16.1,0c10.9-0.1,21.8-0.1,32.6-0.1c1.2,0,1.2,0,1.2,1.2c0,2.6,0,5.2,0,7.8c0,0.9,0,0.9-0.8,1.2
		c-7.2,3-14.4,5.9-21.6,8.8c0,0-0.1,0-0.1,0.1c6.6,0,13.2,0,19.8,0c0.9,0,1,0.2,0.9,1c-0.2,2.3-0.4,4.6-0.6,6.9
		c-0.2,2.8-0.5,5.5-0.7,8.3c-0.2,2.3-0.4,4.6-0.6,6.9c-0.2,2.4-0.4,4.7-0.6,7.1c0,0.5-0.3,0.7-0.7,0.9c-2.6,0.8-5.1,1.6-7.7,2.4
		c-3.7,1.1-7.3,2.3-11,3.4c-0.3,0.1-0.5,0.3-0.8,0.1c-3.7-1-7.4-2-11-3.1c-3.1-0.9-6.3-1.7-9.4-2.6c-0.4-0.1-0.5-0.3-0.5-0.7
		c-0.4-4.9-0.8-9.7-1.3-14.6c0-0.3,0-0.5,0.4-0.5c3,0,6,0,8.9,0c0.4,0,0.4,0.1,0.5,0.5c0.3,2.2,0.5,4.4,0.8,6.6
		c0,0.4,0.2,0.5,0.6,0.6c3.2,0.8,6.4,1.6,9.6,2.4c0.5,0.1,0.9,0,1.3-0.1c0.3-0.2,0.6-0.3,0.9-0.3c2.9-0.6,5.9-1.1,8.8-1.7
		c0.9-0.2,0.9-0.2,1-1.1c0.3-3.5,0.7-7.1,1.1-10.6c0-0.3,0-0.5,0.1-0.8c0.1-0.7,0-0.7-0.7-0.7c-3.1,0-6.3,0.1-9.4,0
		c-8-0.2-16,0-23.9-0.1C37.8,72.8,37.6,72.8,37.5,72.7z"/>
	<path class="st3" d="M60.2,99.5c6.5-2,13.1-4.1,19.6-6.1c0.4-0.1,0.5-0.3,0.5-0.7c0.5-6.1,1.1-12.1,1.6-18.2
		c0.3-3.8,0.7-7.6,1-11.4c0-0.5,0-0.6-0.6-0.6c-6.7,0-13.3,0-20,0c-0.2,0-0.4,0-0.6,0c0.1-0.2,0.3-0.2,0.4-0.3c7.3-3,14.7-6,22-9
		c0.4-0.2,0.5-0.3,0.5-0.8c0-2.9,0-5.8,0-8.6c0-0.4-0.1-0.5-0.5-0.5c-16.5,0-32.9,0-49.4,0c-0.5,0-0.5,0.2-0.5,0.6
		c-0.2-0.6-0.2-0.7,0.5-0.7c8.2,0,16.3,0,24.5,0c0.7,0,0.7,0,0.7-0.7c0-2.7,0-5.4,0-8c0-0.5,0.1-0.7,0.6-0.7c10.5,0,21,0,31.6,0
		c0.5,0,0.6,0.1,0.6,0.6c-0.2,1.4-0.3,2.8-0.4,4.3c-0.1,1-0.1,2.1-0.2,3.1c-0.1,1.5-0.3,2.9-0.4,4.4c-0.1,0.9-0.2,1.9-0.2,2.8
		c-0.1,1.6-0.3,3.2-0.4,4.8c-0.1,1-0.1,2.1-0.2,3.1c-0.1,1.4-0.3,2.9-0.4,4.3c-0.1,0.9-0.2,1.9-0.2,2.8c-0.1,1.6-0.3,3.2-0.4,4.8
		c-0.1,1-0.1,2-0.2,3c-0.1,1.5-0.3,2.9-0.4,4.4c-0.1,0.9-0.2,1.9-0.2,2.8c-0.1,1.6-0.2,3.2-0.4,4.8c-0.1,1-0.1,2-0.2,3
		c-0.1,1.5-0.3,3-0.4,4.5c-0.1,0.9-0.2,1.8-0.2,2.7c-0.1,1.6-0.2,3.2-0.4,4.8c-0.1,0.6-0.1,1.3-0.1,2c0,0.4-0.1,0.6-0.6,0.8
		c-5,1.4-9.9,2.8-14.9,4.3c-3.6,1-7.3,2.1-10.9,3.2c-0.5,0.2-0.6,0.1-0.6-0.5C60.2,105.4,60.2,102.4,60.2,99.5z"/>
	<path class="st3" d="M37.5,72.7c0.2,0,0.5,0,0.7,0c11.1,0,22.3,0,33.4,0c0.7,0,0.7,0,0.6,0.7c-0.4,3.9-0.8,7.8-1.2,11.7
		c-0.1,1-0.1,1-1.1,1.2c-3.2,0.6-6.4,1.2-9.6,1.8c-0.1,0-0.2,0-0.3,0c0.1-0.2,0.1-0.4,0.1-0.6c0-4.7,0-9.3,0-14
		c0-0.5-0.1-0.7-0.7-0.7c-7.1,0-14.3,0-21.4,0C38,72.8,37.7,72.9,37.5,72.7z"/>
</g>
</svg>
