<?xml version="1.0" encoding="utf-8"?>
<!-- Generator: Adobe Illustrator 19.2.0, SVG Export Plug-In . SVG Version: 6.00 Build 0)  -->
<svg version="1.1" id="Слой_1" xmlns="http://www.w3.org/2000/svg" xmlns:xlink="http://www.w3.org/1999/xlink" x="0px" y="0px"
	 viewBox="0 0 120 120" style="enable-background:new 0 0 120 120;" xml:space="preserve">
<style type="text/css">
	.st0{fill:#EF5033;}
	.st1{fill:#EF5235;}
	.st2{fill:#EF5135;}
	.st3{fill:#F0583D;}
	.st4{fill:#FEFBFB;}
	.st5{fill:#FDF3F1;}
</style>
<g>
	<path class="st0" d="M1.6,56.5c4-4.1,7.9-8.1,11.9-12.2c3.5-3.6,6.8-3,8.7,1.7c2.1,5.1,3.1,10.3,2.6,15.8c-0.2,1.8-0.9,3-1.8,4.3
		c-1.1,1.6-0.6,3.1,0.7,4.4c1.3,1.3,2.9,1.4,4.4,0.4c1.4-1,2.5-2.7,1.4-4.2c-3.2-4.5-1-9.4-1.9-14.8c2.8,1.8,4.9,3,5.2,6.2
		c0.2,2.3,1.7,3.5,4,3.2c1.9-0.2,2.9-1.4,3-3.2c0.1-2-0.8-3.4-2.9-3.8c-3.9-0.7-6.1-3.2-7.1-6.9c-0.5-1.7-1.3-3.3-3.1-3.3
		c-2.3,0-3.5-1.5-4.7-2.9c-0.9-1.1-3.7-2-1.2-4.1c2-1.7,3.8-5.9,7-3c7.5,6.9,14.6,14.3,21.8,21.6c1.3,1.4,1,3.1-0.3,4.4
		c-6.9,6.9-13.7,13.8-20.7,20.6c-2.4,2.4-4.3,0.8-6.2-1C16.1,73.3,9.8,67,3.4,60.7c-0.5-0.5-1.3-0.9-1.9-1.3
		C1.6,58.4,1.6,57.5,1.6,56.5z"/>
	<path class="st1" d="M118.4,68.2c-14.2,2.6-15.2,1.6-15.3-12.8c0-2.4,1.4-5.6-2.9-6.5c-0.9-0.2-1.4-3.2,0.7-3.9
		c2.7-0.9,4.1-2.6,4.5-5.2c0.3-1.9,1.4-2.3,3-2.2c2.3,0.1,2,1.8,1.9,3.1c-0.4,3.2,0.8,4.4,4,4c1.5-0.2,2.9-0.2,2.9,2.1
		c0,2.3-1.1,2.9-3,2.6c-3.4-0.5-4.2,1.1-3.9,4.1c0.2,2.1,0.1,4.2,0,6.3c-0.1,3.3,1.2,5.2,4.6,4.1c2.6-0.8,2.4,1.3,3.4,2.3
		C118.4,66.9,118.4,67.5,118.4,68.2z"/>
	<path class="st0" d="M70.6,80.6c-2.1-0.3-4.2-0.4-6.2-1c-1.9-0.5-4.6-1.8-4.1-3.5c1.2-4.3-1.1-9.2,2.2-13c0.8-0.9,2.2-1.6,0.6-3.1
		c-3.2-3-3.1-6.8-1.4-10.3c1.9-4,6-4.7,10-4.7c3.5,0,7.1,0.4,10.6,0.6c1.2,0.1,2.3,0.1,2.3,1.8c0,1.3-0.2,2.3-1.8,2.2
		c-1.4-0.1-1.8,0.3-1.4,1.9c1.5,7.5-2,11.3-10,11.2c-1.3,0-3.4-1.1-3.4,1.2c0,1.8,2.1,0.9,3.2,1.1c2.6,0.3,5.2,0.4,7.7,0.8
		c2.8,0.4,4.9,1.8,5.4,4.8c0.5,3.2-0.6,5.7-3.3,7.5C77.8,80.2,74.2,80.3,70.6,80.6z"/>
	<path class="st2" d="M97,55.2c0,2.4,0,4.8,0,7.3c0,0.9-0.3,2.2,0.7,2.6c1.5,0.6,2.9,1.1,2.3,3c-0.7,2.3-2.7,1.1-4.1,1.2
		c-2.2,0.2-4.5,0.1-6.8,0c-1,0-2.1,0.1-2.2-1.3c0-0.7,0.2-2.1,0.6-2.2c3.6-0.8,2.7-3.7,2.4-5.8c-0.5-3.8,2.2-8.4-2.5-11.5
		c-0.4-0.3-0.4-2.2,0.1-2.6c2.3-1.9,5.2-0.8,7.8-0.8c2.2-0.1,1.6,2,1.6,3.3C97,50.7,96.9,52.9,97,55.2z"/>
	<path class="st3" d="M97,36.8c0,3.1-1.4,4.6-4,4.8c-2.6,0.1-4.3-1.4-4.4-4c-0.1-2.6,1.4-4.3,4-4.3C95.3,33.1,96.9,34.4,97,36.8z"/>
	<path class="st4" d="M71.6,57.9c-2.4-0.1-4.2-1-4.3-3.6c-0.1-2.6,1.2-4.3,3.9-4.5c2.7-0.2,4.3,1.1,4.5,3.9
		C75.9,56.5,74.1,57.6,71.6,57.9z"/>
	<path class="st5" d="M70.7,76c-0.9-0.1-2.3-0.2-3.7-0.6c-1.3-0.4-1.7-1.4-1.4-2.7c0.3-1.1,1-1.6,2.1-1.6c1.3,0,2.6-0.1,3.9,0.2
		c2,0.5,5.5-0.8,5.3,2.3C76.8,76.4,73.5,75.8,70.7,76z"/>
</g>
</svg>
