<?xml version="1.0" encoding="utf-8"?>
<!-- Generator: Adobe Illustrator 19.2.0, SVG Export Plug-In . SVG Version: 6.00 Build 0)  -->
<svg version="1.1" id="Слой_1" xmlns="http://www.w3.org/2000/svg" xmlns:xlink="http://www.w3.org/1999/xlink" x="0px" y="0px"
	 viewBox="0 0 120 120" style="enable-background:new 0 0 120 120;" xml:space="preserve">
<style type="text/css">
	.st0{fill:#E34D26;}
	.st1{fill:#F06529;}
	.st2{fill:#EAEAEA;}
	.st3{fill:#FEFEFE;}
</style>
<g>
	<path d="M74.8,13.6c0,0.2,0,0.3,0,0.5c0,3.8,0,7.7,0,11.5c0,0.4-0.1,0.5-0.5,0.5c-1.1,0-2.2,0-3.2,0c-0.3,0-0.4-0.1-0.4-0.4
		c0-1.7,0-3.5,0-5.2c0-0.1,0-0.3,0-0.4c0,0-0.1,0-0.1,0c-0.9,1.4-1.9,2.9-2.8,4.4c-1-1.5-1.9-2.9-2.9-4.5c0,1,0,1.8,0,2.6
		c0,1.1,0,2.2,0,3.2c0,0.3-0.1,0.3-0.3,0.3c-1.1,0-2.3,0-3.4,0c-0.3,0-0.3-0.1-0.3-0.4c0-1.9,0-3.9,0-5.8c0-2.1,0-4.2,0-6.3
		c1.5,0,2.9,0,4.4,0c0.1,0.1,0.2,0.2,0.3,0.3c0.8,1.3,1.6,2.6,2.4,3.9c0.7-1.1,1.4-2.2,2-3.3c0.2-0.3,0.4-0.6,0.6-0.9
		C71.8,13.6,73.3,13.6,74.8,13.6z"/>
	<path d="M45.4,13.6c0,4,0,8.1,0,12.1c0,0.4-0.1,0.4-0.4,0.4c-1.1,0-2.2,0-3.3,0c-0.4,0-0.4-0.1-0.4-0.4c0-1.1,0-2.3,0-3.4
		c0-0.3-0.1-0.4-0.4-0.4c-1,0-2,0-3.1,0c-0.3,0-0.4,0.1-0.4,0.4c0,1.1,0,2.2,0,3.3c0,0.3,0,0.5-0.4,0.4c-1.1,0-2.3,0-3.4,0
		c-0.2,0-0.3,0-0.3-0.3c0-4.1,0-8.2,0-12.2c1.4,0,2.8,0,4.2,0c0.2,0.2,0.1,0.4,0.1,0.7c0,0.9,0,1.9,0,2.8c0,0.5,0,0.5,0.5,0.5
		c0.8,0,1.6,0,2.5,0c0.5,0,0.5,0,0.5-0.5c0-0.9,0-1.9,0-2.8c0-0.2,0-0.5,0.1-0.7C42.6,13.6,44,13.6,45.4,13.6z"/>
	<path d="M58.8,13.6c0,1.3,0,2.5,0,3.8c0,0.3-0.1,0.4-0.4,0.4c-0.9,0-1.9,0-2.8,0c-0.4,0-0.5,0.1-0.5,0.5c0,2.5,0,4.9,0,7.4
		c0,0.3-0.1,0.5-0.4,0.5c-1.1,0-2.2,0-3.3,0c-0.4,0-0.5-0.1-0.5-0.5c0-2.5,0-5,0-7.5c0-0.3-0.1-0.5-0.4-0.5c-1,0-1.9,0-2.9,0
		c-0.2,0-0.4,0-0.4-0.3c0-1.3,0-2.6,0-3.9C51.1,13.6,55,13.6,58.8,13.6z"/>
	<path d="M81,13.6c0,2.6,0,5.3,0,7.9c0,0.4,0.1,0.5,0.5,0.4c1.7,0,3.4,0,5.1,0c0.3,0,0.4,0.1,0.4,0.4c0,1.1,0,2.3,0,3.4
		c0,0.3-0.1,0.3-0.3,0.3c-3.1,0-6.3,0-9.4,0c-0.4,0-0.3-0.2-0.3-0.4c0-3.9,0-7.7,0-11.6c0-0.2,0-0.3,0-0.5
		C78.2,13.6,79.6,13.6,81,13.6z"/>
	<path class="st0" d="M60,31.9c10.8,0,21.5,0,32.3,0c0.6,0,0.6,0,0.5,0.6c-0.3,3.4-0.6,6.8-0.9,10.2c-0.3,3.6-0.7,7.3-1,10.9
		c-0.3,3.3-0.6,6.6-0.9,9.9c-0.3,3.3-0.6,6.6-0.9,9.9c-0.3,3.3-0.6,6.6-0.9,9.9c-0.3,3.6-0.7,7.3-1,10.9c-0.1,1.5-0.3,3-0.4,4.4
		c0,0.3-0.1,0.4-0.4,0.5c-8.6,2.4-17.3,4.8-25.9,7.2c-0.4,0.1-0.8,0.1-1.3,0c-8.6-2.4-17.2-4.8-25.8-7.2c-0.3-0.1-0.4-0.2-0.4-0.5
		c-0.3-4-0.7-8-1.1-12c-0.3-3.3-0.6-6.6-0.9-9.9c-0.3-3.3-0.6-6.6-0.9-9.9c-0.3-3-0.5-5.9-0.8-8.9c-0.3-3.6-0.7-7.3-1-10.9
		c-0.3-2.9-0.5-5.9-0.8-8.8c-0.2-1.9-0.3-3.8-0.5-5.7c-0.1-0.7-0.1-0.7,0.6-0.7C38.5,31.9,49.3,31.9,60,31.9z"/>
	<path class="st1" d="M60,45.6c0-2.6,0-5.1,0-7.7c0-0.4,0.1-0.5,0.5-0.5c8.6,0,17.2,0,25.8,0c0.4,0,0.6,0.1,0.5,0.5
		c-0.1,1.3-0.2,2.5-0.4,3.8c-0.1,0.9-0.1,1.7-0.2,2.6c-0.1,1.3-0.2,2.5-0.4,3.8c-0.1,0.8-0.1,1.6-0.2,2.3c-0.1,1.3-0.2,2.5-0.4,3.8
		c-0.1,0.8-0.1,1.7-0.2,2.5c-0.1,1.3-0.2,2.5-0.4,3.8c-0.1,0.8-0.1,1.6-0.2,2.4c-0.1,1.3-0.2,2.6-0.4,3.9c-0.1,0.8-0.1,1.7-0.2,2.5
		c-0.1,1.2-0.2,2.5-0.4,3.7c-0.1,0.8-0.1,1.7-0.2,2.5c-0.1,1.3-0.2,2.6-0.4,3.9c-0.1,0.8-0.1,1.5-0.2,2.3c-0.1,1.3-0.2,2.6-0.4,3.9
		c-0.1,0.8-0.1,1.6-0.2,2.4c-0.1,1.3-0.2,2.5-0.4,3.8c-0.1,0.9-0.2,1.7-0.2,2.6c0,0.3-0.1,0.5-0.4,0.6c-3.9,1.1-7.8,2.1-11.7,3.2
		c-3,0.8-6,1.7-9.1,2.5c-0.7,0.2-0.7,0.2-0.7-0.5c0-2.6,0-5.2,0-7.8c0-0.1,0-0.1,0.1-0.1c1-0.4,2-0.6,3.1-0.9
		c4.2-1.2,8.5-2.4,12.7-3.5c0.8-0.2,0.8-0.2,0.9-1.1c0.2-2,0.3-3.9,0.5-5.9c0.2-1.9,0.3-3.8,0.5-5.7c0.2-1.9,0.3-3.8,0.5-5.7
		c0.2-1.9,0.3-3.8,0.5-5.7c0.1-1.4,0.2-1.2-1-1.2c-6,0-11.9,0-17.9,0c-3.4,0-6.8,0-10.3,0c-0.2,0-0.4,0-0.5-0.2
		c0.2-0.2,0.5-0.2,0.8-0.2c3,0,6,0,9,0c0.1,0,0.2,0,0.4,0c0.6,0,0.6,0,0.6-0.6c0-2.3,0-4.5,0-6.8c0-0.2,0-0.5,0.1-0.7
		c0-0.1,0.1-0.1,0.1-0.1c0.3-0.1,0.6-0.1,0.9-0.1c5.9,0,11.8,0,17.8,0c0.1,0,0.2,0,0.4,0c0.6,0,0.7-0.1,0.8-0.7
		c0.2-2.3,0.4-4.6,0.6-6.9c0-0.2-0.1-0.3-0.3-0.3c-0.2,0-0.3,0-0.5,0c-6.3,0-12.6,0-18.8,0C60.5,45.7,60.2,45.8,60,45.6z"/>
	<path class="st2" d="M60,45.6c0.2,0,0.4,0,0.6,0c6.5,0,13,0,19.6,0c0.4,0,0.6,0,0.4,0.5c-0.2-0.2-0.5-0.2-0.8-0.2
		c-6.3,0-12.7,0-19,0c-0.6,0-0.6,0-0.6,0.6c0,2.2,0,4.4,0,6.6c0,0.3,0.1,0.5-0.2,0.8l0,0C59.8,54,59.5,54,59.2,54
		c-3.3,0-6.5,0-9.8,0c-0.1,0-0.2,0-0.2,0c-0.7,0-0.7,0.1-0.7,0.8c0.2,2.2,0.4,4.5,0.6,6.7c0,0.3,0.1,0.5,0,0.8
		c0.2,0.2,0.3,0.1,0.5,0.1c3.4,0,6.9,0,10.3,0c0.2,0.2,0.1,0.5,0.1,0.8c0,2.2,0,4.4,0,6.6c0,0.7,0,0.7,0.7,0.7c2.9,0,5.7,0,8.6,0
		c0.2,0,0.6-0.1,0.7,0.2c-0.2,0.1-0.4,0.1-0.6,0.1c-3,0-6,0-8.9,0c-0.2,0-0.4,0-0.6-0.2c-0.2,0-0.4,0-0.6,0c-5.8,0-11.5,0-17.3,0
		c-0.4,0-0.5-0.1-0.6-0.5c-0.2-3-0.5-6-0.8-9c-0.2-2.6-0.5-5.1-0.7-7.7c-0.2-2.3-0.4-4.6-0.6-6.8c-0.1-0.8-0.1-0.8,0.7-0.8
		c6.4,0,12.8,0,19.3,0C59.6,45.6,59.8,45.6,60,45.6z"/>
	<path class="st2" d="M60,92.2C60,92.2,60,92.2,60,92.2c-2.7-0.7-5.5-1.5-8.2-2.2c-2.8-0.8-5.6-1.6-8.4-2.3
		c-0.2-0.1-0.3-0.2-0.3-0.4c-0.1-1.5-0.3-3.1-0.4-4.6c-0.2-2.4-0.4-4.7-0.6-7.1c-0.1-0.9-0.1-0.9,0.8-0.9c2.3,0,4.7,0,7,0
		c0.3,0,0.4,0.1,0.5,0.4c0.1,1.9,0.3,3.8,0.5,5.6c0,0.4,0.2,0.5,0.5,0.6c2.8,0.7,5.6,1.5,8.4,2.3c0.1,0,0.2,0,0.3,0
		c0.1,0,0.1,0,0.1,0.1c0,1.1,0,2.2,0,3.2c0,1.5,0,3,0,4.5C60.1,91.7,60.2,91.9,60,92.2z"/>
	<path class="st1" d="M60.1,83.6C60.1,83.6,60,83.6,60.1,83.6C60,79.2,60,74.9,60,70.5c1.5,0,3,0,4.6,0c1.7,0,3.3,0,5,0
		c0.2,0,0.4,0,0.6,0c0.2,0.4,0,0.8,0,1.3c-0.2,2-0.3,4-0.5,5.9c-0.1,1-0.2,2-0.3,3c0,0.4-0.3,0.5-0.6,0.6c-1.4,0.4-2.8,0.8-4.2,1.1
		c-1.3,0.3-2.6,0.7-3.8,1C60.5,83.6,60.3,83.7,60.1,83.6z"/>
	<path class="st3" d="M60.1,83.6c2-0.6,4.1-1.1,6.1-1.7c0.9-0.2,1.8-0.5,2.6-0.7c0.2-0.1,0.3-0.2,0.4-0.4c0.3-3.4,0.6-6.9,0.9-10.3
		c-0.1-0.2-0.3-0.1-0.5-0.1c-3,0-6.1,0-9.1,0c-0.4,0-0.5-0.1-0.5-0.5c0-2.5,0-5.1,0-7.7c0.1,0,0.3,0,0.4,0c6.1,0,12.1,0,18.2,0
		c0.4,0,0.5,0.1,0.5,0.5c-0.3,2.9-0.5,5.9-0.8,8.8c-0.3,3.6-0.7,7.3-1,10.9c-0.1,1.5-0.3,3.1-0.4,4.6c0,0.3-0.1,0.4-0.4,0.5
		c-5.4,1.5-10.8,3-16.1,4.5c-0.1,0-0.2,0-0.3,0.1c0-2.7,0-5.4,0-8C60,83.9,60,83.8,60.1,83.6z"/>
	<path class="st3" d="M60,53.8c0-2.5,0-5.1,0-7.6c0-0.4,0.1-0.5,0.5-0.5c6.5,0,13,0,19.5,0c0.3,0,0.5,0,0.5,0.4
		c-0.2,2-0.3,4.1-0.5,6.1c0,0.5-0.1,0.9-0.1,1.4c0,0.2-0.1,0.3-0.3,0.3c0,0-0.1,0-0.1,0c-6.4,0-12.8,0-19.2,0
		C60.1,53.8,60.1,53.8,60,53.8z"/>
	<path class="st0" d="M49.1,62.2C49,61.5,49,60.7,48.9,60c-0.2-1.9-0.3-3.9-0.5-5.8c0-0.2,0-0.4,0.3-0.4c3.7,0,7.5,0,11.2,0
		c0,0,0.1,0,0.1,0c0,2.6,0,5.2,0,7.7c0,0.6,0,0.6-0.6,0.6C56,62.2,52.6,62.2,49.1,62.2z"/>
</g>
</svg>
